# xmcd
#
# Track frame offsets:
# 183
# 20873
# 38798
# 63693
# 92255
# 115058
# 139435
# 175223
# 193330
# 230465
# 253545
# 270968
#
# Disc length: 3778 seconds
#
#
# Revision: 6
# Processed by: cddbd v1.5.2PL0 Copyright (c) Steve Scherf et al.
# Submitted via: FreeRIP 2.96 
#
DISCID=a80ec00c
DTITLE=Lucky Peterson - I'm Ready
DYEAR=1992
DGENRE=Blues
TTITLE0=I'm Ready
TTITLE1=It Ain't Right
TTITLE2=You Shook Me
TTITLE3=Junk Yard
TTITLE4=Who's Been Talking
TTITLE5=I Lost Faith Last Night
TTITLE6=Tribute to the King
TTITLE7=On the Sea of Love
TTITLE8=Nothing But Smoke
TTITLE9=Spankin' Leroy
TTITLE10=Don't Cloud Up On Me
TTITLE11=Precious Lord Take My Hand
EXTD=
EXTT0=
EXTT1=
EXTT2=
EXTT3=
EXTT4=
EXTT5=
EXTT6=
EXTT7=
EXTT8=
EXTT9=
EXTT10=
EXTT11=
PLAYORDER=
